<mxfile host="app.diagrams.net" modified="2023-11-03T14:30:13.208Z" agent="Mozilla/5.0 (Windows NT 10.0; Win64; x64) AppleWebKit/537.36 (KHTML, like Gecko) Chrome/118.0.0.0 Safari/537.36 Edg/118.0.2088.76" version="22.0.8" etag="xjnzpgeTg13Go6bGiiS_" type="github">
  <diagram name="Page-1" id="NlY3V5xBhAiVeG19HMp3">
    <mxGraphModel>
      <root>
        <mxCell id="0" />
        <mxCell id="1" parent="0" />
      </root>
    </mxGraphModel>
  </diagram>
</mxfile>
